<?xml version="1.0" standalone="no"?>
<svg xmlns:xlink="http://www.w3.org/1999/xlink" id="wave" style="transform:rotate(180deg); transition: 0.3s" viewBox="0 0 1440 100" version="1.1" xmlns="http://www.w3.org/2000/svg"><defs><linearGradient id="sw-gradient-0" x1="0" x2="0" y1="1" y2="0"><stop stop-color="rgba(255, 249, 234, 1)" offset="0%"/><stop stop-color="rgba(255, 249, 234, 1)" offset="100%"/></linearGradient></defs><path style="transform:translate(0, 0px); opacity:1" fill="url(#sw-gradient-0)" d="M0,30L30,26.7C60,23,120,17,180,13.3C240,10,300,10,360,20C420,30,480,50,540,48.3C600,47,660,23,720,26.7C780,30,840,60,900,65C960,70,1020,50,1080,35C1140,20,1200,10,1260,13.3C1320,17,1380,33,1440,41.7C1500,50,1560,50,1620,45C1680,40,1740,30,1800,25C1860,20,1920,20,1980,18.3C2040,17,2100,13,2160,16.7C2220,20,2280,30,2340,40C2400,50,2460,60,2520,65C2580,70,2640,70,2700,61.7C2760,53,2820,37,2880,36.7C2940,37,3000,53,3060,56.7C3120,60,3180,50,3240,50C3300,50,3360,60,3420,63.3C3480,67,3540,63,3600,51.7C3660,40,3720,20,3780,20C3840,20,3900,40,3960,43.3C4020,47,4080,33,4140,28.3C4200,23,4260,27,4290,28.3L4320,30L4320,100L4290,100C4260,100,4200,100,4140,100C4080,100,4020,100,3960,100C3900,100,3840,100,3780,100C3720,100,3660,100,3600,100C3540,100,3480,100,3420,100C3360,100,3300,100,3240,100C3180,100,3120,100,3060,100C3000,100,2940,100,2880,100C2820,100,2760,100,2700,100C2640,100,2580,100,2520,100C2460,100,2400,100,2340,100C2280,100,2220,100,2160,100C2100,100,2040,100,1980,100C1920,100,1860,100,1800,100C1740,100,1680,100,1620,100C1560,100,1500,100,1440,100C1380,100,1320,100,1260,100C1200,100,1140,100,1080,100C1020,100,960,100,900,100C840,100,780,100,720,100C660,100,600,100,540,100C480,100,420,100,360,100C300,100,240,100,180,100C120,100,60,100,30,100L0,100Z"/></svg>